<mxfile host="Electron" agent="Mozilla/5.0 (Windows NT 10.0; Win64; x64) AppleWebKit/537.36 (KHTML, like Gecko) draw.io/24.7.17 Chrome/128.0.6613.36 Electron/32.0.1 Safari/537.36" version="24.7.17">
  <diagram name="Page-1" id="ZE1yGoy0OZO1pscl7Gn_">
    <mxGraphModel dx="628" dy="368" grid="1" gridSize="10" guides="1" tooltips="1" connect="1" arrows="1" fold="1" page="1" pageScale="1" pageWidth="850" pageHeight="1100" math="1" shadow="0">
      <root>
        <mxCell id="0" />
        <mxCell id="1" parent="0" />
        <mxCell id="v97vcPsDmEwqC6VRpuVJ-4" value="" style="endArrow=classic;html=1;rounded=0;" parent="1" edge="1">
          <mxGeometry width="50" height="50" relative="1" as="geometry">
            <mxPoint x="192" y="240" as="sourcePoint" />
            <mxPoint x="520" y="240" as="targetPoint" />
          </mxGeometry>
        </mxCell>
        <mxCell id="v97vcPsDmEwqC6VRpuVJ-2" value="" style="ellipse;whiteSpace=wrap;html=1;aspect=fixed;fillColor=#a20025;strokeColor=#6F0000;fontColor=#ffffff;gradientColor=#FFFFFF;" parent="1" vertex="1">
          <mxGeometry x="310" y="210" width="60" height="60" as="geometry" />
        </mxCell>
        <mxCell id="v97vcPsDmEwqC6VRpuVJ-5" value="" style="ellipse;whiteSpace=wrap;html=1;aspect=fixed;fillColor=#ffff88;strokeColor=#36393d;" parent="1" vertex="1">
          <mxGeometry x="170" y="210" width="10" height="10" as="geometry" />
        </mxCell>
        <mxCell id="v97vcPsDmEwqC6VRpuVJ-6" value="" style="shape=cylinder3;whiteSpace=wrap;html=1;boundedLbl=1;backgroundOutline=1;size=15;rotation=-135;fillColor=#dae8fc;strokeColor=#6c8ebf;gradientColor=#7ea6e0;gradientDirection=north;" parent="1" vertex="1">
          <mxGeometry x="454.36" y="39.49" width="50" height="146.46" as="geometry" />
        </mxCell>
        <mxCell id="v97vcPsDmEwqC6VRpuVJ-7" value="" style="ellipse;whiteSpace=wrap;html=1;aspect=fixed;fillColor=#ffff88;strokeColor=#36393d;" parent="1" vertex="1">
          <mxGeometry x="150" y="235" width="10" height="10" as="geometry" />
        </mxCell>
        <mxCell id="v97vcPsDmEwqC6VRpuVJ-10" value="" style="ellipse;whiteSpace=wrap;html=1;aspect=fixed;fillColor=#ffff88;strokeColor=#36393d;" parent="1" vertex="1">
          <mxGeometry x="150" y="235" width="10" height="10" as="geometry" />
        </mxCell>
        <mxCell id="v97vcPsDmEwqC6VRpuVJ-16" value="" style="ellipse;whiteSpace=wrap;html=1;aspect=fixed;fillColor=#ffff88;strokeColor=#36393d;" parent="1" vertex="1">
          <mxGeometry x="180" y="260" width="10" height="10" as="geometry" />
        </mxCell>
        <mxCell id="v97vcPsDmEwqC6VRpuVJ-18" value="" style="ellipse;whiteSpace=wrap;html=1;aspect=fixed;fillColor=#ffff88;strokeColor=#36393d;" parent="1" vertex="1">
          <mxGeometry x="210" y="220" width="10" height="10" as="geometry" />
        </mxCell>
        <mxCell id="v97vcPsDmEwqC6VRpuVJ-19" value="" style="ellipse;whiteSpace=wrap;html=1;aspect=fixed;fillColor=#ffff88;strokeColor=#36393d;" parent="1" vertex="1">
          <mxGeometry x="140" y="190" width="10" height="10" as="geometry" />
        </mxCell>
        <mxCell id="v97vcPsDmEwqC6VRpuVJ-20" value="" style="ellipse;whiteSpace=wrap;html=1;aspect=fixed;fillColor=#ffff88;strokeColor=#36393d;" parent="1" vertex="1">
          <mxGeometry x="150" y="280" width="10" height="10" as="geometry" />
        </mxCell>
        <mxCell id="v97vcPsDmEwqC6VRpuVJ-21" value="" style="shape=flexArrow;endArrow=classic;html=1;rounded=0;endWidth=28.32778147901399;endSize=14.215189873417721;width=13.164556962025316;" parent="1" edge="1">
          <mxGeometry width="50" height="50" relative="1" as="geometry">
            <mxPoint x="96.25" y="239.94" as="sourcePoint" />
            <mxPoint x="193.75" y="240.07" as="targetPoint" />
          </mxGeometry>
        </mxCell>
        <mxCell id="v97vcPsDmEwqC6VRpuVJ-22" value="" style="endArrow=none;html=1;rounded=0;" parent="1" edge="1">
          <mxGeometry width="50" height="50" relative="1" as="geometry">
            <mxPoint x="340" y="240" as="sourcePoint" />
            <mxPoint x="440" y="150" as="targetPoint" />
          </mxGeometry>
        </mxCell>
        <mxCell id="v97vcPsDmEwqC6VRpuVJ-24" value="" style="curved=1;endArrow=classic;html=1;rounded=0;" parent="1" edge="1">
          <mxGeometry width="50" height="50" relative="1" as="geometry">
            <mxPoint x="390" y="240" as="sourcePoint" />
            <mxPoint x="370" y="210" as="targetPoint" />
            <Array as="points">
              <mxPoint x="400" y="210" />
            </Array>
          </mxGeometry>
        </mxCell>
        <mxCell id="v97vcPsDmEwqC6VRpuVJ-29" value="&lt;span style=&quot;font-size: 20px;&quot;&gt;$$N[\mathrm{L}^{-2}\mathrm{T&lt;br&gt;}^{-1}]$$&lt;/span&gt;" style="text;html=1;align=center;verticalAlign=middle;whiteSpace=wrap;rounded=0;" parent="1" vertex="1">
          <mxGeometry x="20" y="200" width="110" height="30" as="geometry" />
        </mxCell>
        <mxCell id="v97vcPsDmEwqC6VRpuVJ-31" value="" style="curved=1;endArrow=classic;html=1;rounded=0;" parent="1" edge="1">
          <mxGeometry width="50" height="50" relative="1" as="geometry">
            <mxPoint x="380" y="120" as="sourcePoint" />
            <mxPoint x="430" y="150" as="targetPoint" />
            <Array as="points">
              <mxPoint x="390" y="160" />
            </Array>
          </mxGeometry>
        </mxCell>
        <mxCell id="v97vcPsDmEwqC6VRpuVJ-33" value="" style="endArrow=none;dashed=1;html=1;rounded=0;" parent="1" edge="1">
          <mxGeometry width="50" height="50" relative="1" as="geometry">
            <mxPoint x="340" y="240" as="sourcePoint" />
            <mxPoint x="620" y="80" as="targetPoint" />
          </mxGeometry>
        </mxCell>
        <mxCell id="v97vcPsDmEwqC6VRpuVJ-34" value="" style="endArrow=none;dashed=1;html=1;rounded=0;" parent="1" edge="1">
          <mxGeometry width="50" height="50" relative="1" as="geometry">
            <mxPoint x="340" y="240" as="sourcePoint" />
            <mxPoint x="490" y="40" as="targetPoint" />
          </mxGeometry>
        </mxCell>
        <mxCell id="v97vcPsDmEwqC6VRpuVJ-35" value="" style="curved=1;endArrow=classic;html=1;rounded=0;" parent="1" edge="1">
          <mxGeometry width="50" height="50" relative="1" as="geometry">
            <mxPoint x="410" y="200" as="sourcePoint" />
            <mxPoint x="390" y="180" as="targetPoint" />
            <Array as="points">
              <mxPoint x="410" y="180" />
            </Array>
          </mxGeometry>
        </mxCell>
        <mxCell id="v97vcPsDmEwqC6VRpuVJ-38" value="" style="curved=1;endArrow=classic;html=1;rounded=0;exitX=0.242;exitY=-0.267;exitDx=0;exitDy=0;exitPerimeter=0;" parent="1" edge="1">
          <mxGeometry width="50" height="50" relative="1" as="geometry">
            <mxPoint x="394.52" y="196.98999999999995" as="sourcePoint" />
            <mxPoint x="410" y="180" as="targetPoint" />
            <Array as="points">
              <mxPoint x="435" y="200" />
            </Array>
          </mxGeometry>
        </mxCell>
        <mxCell id="LM36AqepJpfXpOde73-_-1" value="&lt;font style=&quot;font-size: 20px;&quot;&gt;$$\rm{d}\phi$$&lt;/font&gt;" style="text;html=1;align=center;verticalAlign=middle;resizable=0;points=[];autosize=1;strokeColor=none;fillColor=none;fontSize=20;" vertex="1" parent="1">
          <mxGeometry x="360" y="180" width="150" height="40" as="geometry" />
        </mxCell>
        <mxCell id="LM36AqepJpfXpOde73-_-2" value="&lt;font style=&quot;font-size: 20px;&quot;&gt;$$\theta$$&lt;/font&gt;" style="text;html=1;align=center;verticalAlign=middle;resizable=0;points=[];autosize=1;strokeColor=none;fillColor=none;fontSize=20;" vertex="1" parent="1">
          <mxGeometry x="340" y="205" width="120" height="40" as="geometry" />
        </mxCell>
        <mxCell id="LM36AqepJpfXpOde73-_-3" value="&lt;font style=&quot;font-size: 20px;&quot;&gt;$$z$$&lt;/font&gt;" style="text;html=1;align=center;verticalAlign=middle;resizable=0;points=[];autosize=1;strokeColor=none;fillColor=none;fontSize=20;" vertex="1" parent="1">
          <mxGeometry x="480" y="195" width="80" height="40" as="geometry" />
        </mxCell>
        <mxCell id="LM36AqepJpfXpOde73-_-4" value="$$\mathrm{d}S$$" style="text;html=1;align=center;verticalAlign=middle;resizable=0;points=[];autosize=1;strokeColor=none;fillColor=none;fontSize=20;" vertex="1" parent="1">
          <mxGeometry x="290" y="90" width="180" height="40" as="geometry" />
        </mxCell>
        <mxCell id="LM36AqepJpfXpOde73-_-5" value="$$\mathrm{d}\theta$$" style="text;html=1;align=center;verticalAlign=middle;resizable=0;points=[];autosize=1;strokeColor=none;fillColor=none;fontSize=20;" vertex="1" parent="1">
          <mxGeometry x="260" y="150" width="220" height="40" as="geometry" />
        </mxCell>
      </root>
    </mxGraphModel>
  </diagram>
</mxfile>
